<?xml version="1.0" encoding="UTF-8" standalone="no"?>
<svg
   xmlns:dc="http://purl.org/dc/elements/1.1/"
   xmlns:cc="http://creativecommons.org/ns#"
   xmlns:rdf="http://www.w3.org/1999/02/22-rdf-syntax-ns#"
   xmlns:svg="http://www.w3.org/2000/svg"
   xmlns="http://www.w3.org/2000/svg"
   width="10mm"
   height="10mm"
   viewBox="0 0 10 10"
   version="1.1"
   id="svg8">
  <defs
     id="defs2" />
  <g
     id="layer1">
    <g
       id="g850">
      <circle
         style="fill:#c98718;fill-opacity:1;stroke:none;stroke-width:8;stroke-linejoin:round;stroke-opacity:1"
         id="path837"
         cx="5"
         cy="5"
         r="4.9999995" />
      <g
         aria-label="S"
         id="text841"
         style="font-weight:bold;font-size:5.64444px;line-height:1.25;font-family:Lato;-inkscape-font-specification:'Lato Bold';stroke-width:0.264583">
        <path
           d="m 6.1190103,3.701779 q -0.031044,0.062089 -0.073378,0.087489 -0.039511,0.0254 -0.095956,0.0254 -0.056444,0 -0.1269999,-0.042333 Q 5.7521217,3.727179 5.6561662,3.6735568 5.5602107,3.6199346 5.4303886,3.5776013 5.3033887,3.5324458 5.128411,3.5324458 q -0.1580443,0 -0.2765775,0.039511 -0.1157111,0.036689 -0.1975554,0.1044221 -0.079022,0.067733 -0.1185333,0.1636888 -0.039511,0.093133 -0.039511,0.206022 0,0.1439333 0.079022,0.2398887 0.081844,0.095956 0.2144887,0.1636888 0.1326444,0.067733 0.3019776,0.1213555 0.1693332,0.053622 0.3443108,0.115711 0.1777999,0.059267 0.3471331,0.141111 0.1693332,0.079022 0.3019775,0.2031999 0.1326444,0.1213554 0.2116666,0.2991553 0.081844,0.1777998 0.081844,0.4317997 0,0.2765775 -0.095955,0.5192885 Q 6.1895658,6.5211769 6.0061215,6.7017989 5.8254994,6.8795988 5.5630329,6.984021 5.3005665,7.0856209 4.9619001,7.0856209 q -0.1947332,0 -0.383822,-0.039511 Q 4.3889894,7.0094209 4.2140117,6.9388654 4.0418563,6.8683099 3.8894564,6.7695322 3.7398788,6.6707545 3.6213455,6.5493991 L 3.8414787,6.1853327 q 0.031044,-0.039511 0.073378,-0.064911 0.045155,-0.028222 0.098778,-0.028222 0.070556,0 0.1523999,0.059267 0.081844,0.056444 0.191911,0.1269999 0.1128888,0.070556 0.2624664,0.1298222 0.1523999,0.056444 0.3640664,0.056444 0.3245553,0 0.5023552,-0.1523999 0.1777999,-0.1552221 0.1777999,-0.4430886 0,-0.1608665 -0.081844,-0.2624664 Q 5.5037663,5.5051776 5.371122,5.4374443 5.2384776,5.3668888 5.0691444,5.3189111 4.8998112,5.2709334 4.7248336,5.214489 4.5498559,5.1580446 4.3805227,5.0790224 4.2111895,5.0000002 4.0785452,4.8730003 3.9459008,4.7460004 3.8640564,4.5569117 3.7850343,4.3650007 3.7850343,4.0856009 q 0,-0.2229554 0.087489,-0.4346219 0.090311,-0.2116665 0.2596442,-0.3753552 0.1721555,-0.1636888 0.4205108,-0.2624665 0.2483554,-0.098778 0.5672663,-0.098778 0.3612441,0 0.6660439,0.1128888 0.3047998,0.1128888 0.5192885,0.3160886 z"
           style="font-size:5.64444px;fill:#ffffff;stroke-width:0.264583"
           id="path843" />
      </g>
    </g>
  </g>
</svg>
