<svg width="550" height="168" viewBox="0 0 550 168" fill="none" xmlns="http://www.w3.org/2000/svg">
<path d="M406.122 150.19L402.246 145.131C404.558 144.435 405.872 142.812 405.872 140.494C405.872 137.332 403.424 135.435 399.39 135.435H393.451V150.19H395.128V145.51H399.39C399.843 145.51 400.251 145.489 400.659 145.447L404.286 150.19H406.122ZM399.344 144.182H395.128V136.784H399.344C402.518 136.784 404.195 138.133 404.195 140.494C404.195 142.812 402.518 144.182 399.344 144.182Z" fill="black"/>
<path d="M419.585 150.19H421.262V136.784H426.838V135.435H414.009V136.784H419.585V150.19Z" fill="black"/>
<path d="M452.837 135.435L446.014 146.375L439.124 135.435H437.741V150.19H439.351V138.449L445.584 148.314H446.377L452.61 138.386V150.19H454.22V135.435H452.837Z" fill="black"/>
<path d="M464.259 148.841V143.36H472.465V142.032H464.259V136.784H473.462V135.435H462.582V150.19H473.802V148.841H464.259Z" fill="black"/>
<path d="M496.332 135.435V147.407L486.11 135.435H484.727V150.19H486.404V138.217L496.604 150.19H497.987V135.435H496.332Z" fill="black"/>
<path d="M510.862 150.19H512.539V136.784H518.115V135.435H505.286V136.784H510.862V150.19Z" fill="black"/>
<path d="M533.392 150.316C537.449 150.316 539.308 148.461 539.308 146.29C539.308 140.915 529.539 143.36 529.539 139.313C529.539 137.837 530.831 136.636 533.732 136.636C535.138 136.636 536.724 137.036 538.084 137.859L538.651 136.615C537.381 135.793 535.523 135.308 533.732 135.308C529.698 135.308 527.884 137.184 527.884 139.355C527.884 144.814 537.654 142.327 537.654 146.374C537.654 147.828 536.362 148.988 533.392 148.988C531.307 148.988 529.29 148.229 528.156 147.196L527.499 148.398C528.678 149.536 531.012 150.316 533.392 150.316Z" fill="black"/>
<path d="M209.824 125.004H255.874V112.881C256.392 100.723 245.933 90.6037 232.848 90.6037C219.764 90.6037 209.306 100.723 209.824 112.881V125.004Z" stroke="black" stroke-width="0.0690146"/>
<path d="M323.766 125.034H369.817V112.91C370.335 100.752 359.876 90.6341 346.793 90.6341C333.707 90.6341 323.248 100.752 323.766 112.91V125.034Z" stroke="black" stroke-width="0.0690146"/>
<path fill-rule="evenodd" clip-rule="evenodd" d="M209.866 142.808C209.866 175.725 156.768 175.725 156.768 142.808V142.782C156.913 84.1999 157.059 25.6171 157.059 25.6171C157.052 17.9805 150.366 11.8057 142.154 11.8526C133.942 11.8988 127.338 18.1487 127.431 25.7852L125.726 72.6058C125.594 82.559 116.878 90.5655 106.173 90.5655C95.4668 90.5655 86.7518 82.559 86.6198 72.6058L84.9141 25.7852C85.0083 18.1487 78.4036 11.8988 70.1915 11.8526C61.9795 11.8057 55.2932 17.9805 55.2873 25.6171L55.5968 150.436C55.6187 172.664 20.038 173.426 18.9615 151.222L16.0287 127.263C15.0304 125.145 12.5729 123.968 10.1389 124.441C10.1389 124.441 6.36674 124.924 2.59463 125.408L1.95769 121.114L1 114.658C4.62913 114.193 8.2591 113.727 8.2591 113.727C16.7899 112.32 25.0869 117.131 27.4813 124.875L30.6125 150.453C30.6125 158.708 43.9272 158.708 43.9272 150.453L43.6177 25.6273C43.6177 -7.20908 96.5846 -7.20908 96.5846 25.6273L98.2877 72.3813C98.2877 76.4296 101.818 79.7137 106.173 79.7137C110.527 79.7137 114.058 76.4296 114.058 72.3813L115.761 25.6273C115.761 -7.20908 168.728 -7.20908 168.728 25.6273L168.438 142.808C168.438 161.256 198.196 161.256 198.196 142.808L198.126 113.394C197.316 95.5335 212.252 80.4536 231.46 79.7395C250.668 79.0262 266.851 92.9479 267.577 110.811L267.543 125.001L269.106 125.004C277.323 125.004 283.985 118.809 283.985 111.167V14.8364C283.985 7.19514 290.647 1 298.863 1H354.999C390.311 1 390.311 50.2569 354.999 50.2569L295.655 50.1278V111.167C295.655 124.802 283.768 135.855 269.106 135.855H267.517L267.515 136.636C268.548 163.317 311.098 163.312 312.124 136.632L312.063 110.841C313.747 69.378 379.834 69.378 381.519 110.841L381.443 142.838C381.443 150.478 388.1 156.671 396.315 156.675H549V167.526H396.333C381.665 167.531 369.774 156.477 369.774 142.838V135.886H323.808C323.809 153.35 308.582 167.505 289.803 167.496C271.024 167.487 255.811 153.319 255.832 135.855H209.866V142.808ZM255.874 125.004H209.824V112.881C209.306 100.723 219.764 90.6037 232.848 90.6037C245.933 90.6037 256.392 100.723 255.874 112.881V125.004ZM323.766 125.034H369.817V112.911C370.335 100.753 359.876 90.6344 346.793 90.6344C333.707 90.6344 323.248 100.753 323.766 112.911V125.034ZM355.012 39.3665C374.702 39.3524 374.69 11.8892 355 11.8892H298.864C297.114 11.8892 295.695 13.2086 295.695 14.837V39.2397C325.354 39.3039 355.012 39.3665 355.012 39.3665Z" fill="black"/>
<path d="M156.768 142.782H156.734V142.782L156.768 142.782ZM157.059 25.6171L157.093 25.6171V25.6172L157.059 25.6171ZM142.154 11.8526L142.155 11.8871L142.154 11.8526ZM127.431 25.7852L127.465 25.7848L127.465 25.7865L127.431 25.7852ZM125.726 72.6058L125.692 72.6054L125.692 72.6046L125.726 72.6058ZM86.6198 72.6058L86.6543 72.6046L86.6543 72.6054L86.6198 72.6058ZM84.9141 25.7852L84.8796 25.7865L84.8796 25.7848L84.9141 25.7852ZM70.1915 11.8526L70.1914 11.8871H70.1913L70.1915 11.8526ZM55.2873 25.6171L55.2528 25.6172V25.6171L55.2873 25.6171ZM55.5968 150.436L55.6313 150.436V150.436L55.5968 150.436ZM18.9615 151.222L18.9958 151.218L18.9959 151.22L18.9615 151.222ZM16.0287 127.263L16.0616 127.248L16.063 127.259L16.0287 127.263ZM10.1389 124.441L10.1454 124.474L10.1432 124.475L10.1389 124.441ZM2.59463 125.408L2.59902 125.442L2.56546 125.447L2.56049 125.413L2.59463 125.408ZM1.95769 121.114L1.92355 121.119L1.92355 121.119L1.95769 121.114ZM1 114.658L0.965866 114.663L0.960701 114.628L0.995618 114.624L1 114.658ZM8.2591 113.727L8.26472 113.761L8.2635 113.761L8.2591 113.727ZM27.4813 124.875L27.5148 124.864L27.5156 124.87L27.4813 124.875ZM30.6125 150.453L30.6471 150.449V150.453H30.6125ZM43.9272 150.453L43.9617 150.453V150.453H43.9272ZM43.6177 25.6273L43.5832 25.6273V25.6273H43.6177ZM96.5846 25.6273L96.55 25.6285V25.6273H96.5846ZM98.2877 72.3813L98.3222 72.3801V72.3813H98.2877ZM114.058 72.3813H114.024L114.024 72.3801L114.058 72.3813ZM115.761 25.6273H115.795L115.795 25.6285L115.761 25.6273ZM168.728 25.6273H168.763V25.6273L168.728 25.6273ZM168.438 142.808H168.404V142.808L168.438 142.808ZM198.196 142.808L198.231 142.808V142.808H198.196ZM198.126 113.394L198.161 113.392V113.394L198.126 113.394ZM231.46 79.7395L231.458 79.705L231.46 79.7395ZM267.577 110.811L267.611 110.809V110.811L267.577 110.811ZM267.543 125.001L267.543 125.035L267.509 125.035L267.509 125L267.543 125.001ZM269.106 125.004V125.038H269.106L269.106 125.004ZM354.999 50.2569V50.2914H354.999L354.999 50.2569ZM295.655 50.1278H295.62V50.0932L295.655 50.0933L295.655 50.1278ZM267.517 135.855L267.483 135.855L267.483 135.821H267.517V135.855ZM267.515 136.636L267.481 136.637V136.636L267.515 136.636ZM312.124 136.632L312.159 136.632L312.158 136.633L312.124 136.632ZM312.063 110.841L312.028 110.841L312.028 110.84L312.063 110.841ZM381.519 110.841L381.554 110.84V110.841L381.519 110.841ZM381.443 142.838H381.409V142.838L381.443 142.838ZM396.315 156.675V156.709H396.315L396.315 156.675ZM549 156.675V156.64H549.034V156.675H549ZM549 167.526H549.034V167.561H549V167.526ZM396.333 167.526V167.492V167.526ZM369.774 135.886V135.851H369.808V135.886H369.774ZM323.808 135.886L323.773 135.886V135.851H323.808V135.886ZM289.803 167.496L289.803 167.461L289.803 167.496ZM255.832 135.855V135.821H255.866L255.866 135.856L255.832 135.855ZM209.866 135.855H209.831V135.821H209.866V135.855ZM209.824 125.004V125.039H209.789V125.004H209.824ZM255.874 125.004H255.908V125.039H255.874V125.004ZM209.824 112.881L209.858 112.879V112.881H209.824ZM255.874 112.881H255.839L255.839 112.879L255.874 112.881ZM369.817 125.034H369.852V125.069H369.817V125.034ZM323.766 125.034V125.069H323.732V125.034H323.766ZM369.817 112.911H369.783L369.783 112.909L369.817 112.911ZM323.766 112.911L323.801 112.909V112.911H323.766ZM355.012 39.3665L355.012 39.401H355.012L355.012 39.3665ZM295.695 39.2397L295.695 39.2743L295.66 39.2742V39.2397H295.695ZM156.803 142.808C156.803 151.027 160.117 157.189 165.087 161.297C170.058 165.406 176.687 167.461 183.317 167.461C189.947 167.461 196.577 165.406 201.547 161.297C206.517 157.189 209.831 151.027 209.831 142.808H209.9C209.9 151.047 206.577 157.229 201.591 161.351C196.606 165.471 189.961 167.53 183.317 167.53C176.673 167.53 170.028 165.471 165.043 161.351C160.057 157.229 156.734 151.047 156.734 142.808H156.803ZM156.803 142.782V142.808H156.734V142.782H156.803ZM157.059 25.6171C157.093 25.6172 157.093 25.6174 157.093 25.6179C157.093 25.6183 157.093 25.619 157.093 25.6199C157.093 25.6216 157.093 25.6243 157.093 25.6279C157.093 25.635 157.093 25.6457 157.093 25.6599C157.093 25.6882 157.093 25.7307 157.093 25.787C157.092 25.8997 157.092 26.0677 157.091 26.2894C157.09 26.7328 157.089 27.3907 157.087 28.2488C157.082 29.9651 157.076 32.4823 157.068 35.6861C157.052 42.0936 157.03 51.2471 157.002 62.2313C156.948 84.1998 156.875 113.491 156.803 142.782L156.734 142.782C156.806 113.491 156.879 84.1996 156.933 62.2312C156.96 51.2469 156.983 42.0934 156.999 35.6859C157.007 32.4822 157.013 29.965 157.018 28.2487C157.02 27.3905 157.021 26.7326 157.022 26.2892C157.023 26.0675 157.023 25.8995 157.024 25.7868C157.024 25.7305 157.024 25.6881 157.024 25.6597C157.024 25.6455 157.024 25.6348 157.024 25.6277C157.024 25.6241 157.024 25.6215 157.024 25.6197C157.024 25.6188 157.024 25.6181 157.024 25.6177C157.024 25.6172 157.024 25.617 157.059 25.6171ZM142.154 11.8181C150.383 11.7711 157.086 17.959 157.093 25.6171L157.024 25.6171C157.017 18.002 150.35 11.8403 142.155 11.8871L142.154 11.8181ZM127.396 25.7857C127.303 18.1276 133.925 11.8644 142.154 11.8181L142.155 11.8871C133.959 11.9332 127.372 18.1697 127.465 25.7848L127.396 25.7857ZM125.692 72.6046L127.396 25.784L127.465 25.7865L125.761 72.6071L125.692 72.6046ZM106.173 90.531C116.862 90.531 125.56 82.5374 125.692 72.6054L125.761 72.6063C125.628 82.5806 116.895 90.6 106.173 90.6V90.531ZM86.6543 72.6054C86.7861 82.5374 95.4833 90.531 106.173 90.531V90.6C95.4503 90.6 86.7176 82.5806 86.5853 72.6063L86.6543 72.6054ZM84.9486 25.784L86.6543 72.6046L86.5853 72.6071L84.8797 25.7865L84.9486 25.784ZM70.1917 11.8181C78.4205 11.8644 85.0431 18.1276 84.9486 25.7857L84.8796 25.7848C84.9736 18.1697 78.3867 11.9332 70.1914 11.8871L70.1917 11.8181ZM55.2528 25.6171C55.2587 17.959 61.963 11.7711 70.1917 11.8181L70.1913 11.8871C61.996 11.8403 55.3277 18.002 55.3218 25.6171L55.2528 25.6171ZM55.5623 150.437L55.2528 25.6172L55.3218 25.617L55.6313 150.436L55.5623 150.437ZM18.9959 151.22C19.2646 156.761 21.6853 160.867 25.1641 163.565C28.6437 166.263 33.1835 167.553 37.6903 167.457C42.1971 167.36 46.6683 165.877 50.0108 163.033C53.3525 160.189 55.5677 155.983 55.5623 150.437L55.6313 150.436C55.6368 156.004 53.4126 160.228 50.0555 163.085C46.6991 165.941 42.212 167.429 37.6918 167.526C33.1716 167.622 28.6157 166.329 25.1218 163.619C21.6272 160.91 19.1966 156.785 18.927 151.223L18.9959 151.22ZM16.063 127.259L18.9957 151.218L18.9272 151.226L15.9945 127.267L16.063 127.259ZM10.1323 124.407C12.5805 123.931 15.0543 125.115 16.0599 127.248L15.9975 127.278C15.0065 125.175 12.5652 124.005 10.1454 124.474L10.1323 124.407ZM2.59024 125.374C4.47629 125.132 6.36235 124.89 7.77689 124.708C8.48417 124.618 9.07356 124.542 9.48613 124.489C9.69242 124.463 9.85451 124.442 9.96502 124.428C10.0203 124.421 10.0626 124.416 10.0912 124.412C10.1055 124.41 10.1163 124.409 10.1235 124.408C10.1272 124.407 10.1299 124.407 10.1317 124.407C10.1326 124.407 10.1333 124.406 10.1338 124.406C10.134 124.406 10.1342 124.406 10.1343 124.406C10.1344 124.406 10.1344 124.406 10.1344 124.406C10.1345 124.406 10.1345 124.406 10.1389 124.441C10.1432 124.475 10.1432 124.475 10.1432 124.475C10.1432 124.475 10.1431 124.475 10.1431 124.475C10.143 124.475 10.1428 124.475 10.1426 124.475C10.1421 124.475 10.1414 124.475 10.1405 124.475C10.1387 124.475 10.1359 124.476 10.1323 124.476C10.1251 124.477 10.1142 124.478 10.1 124.48C10.0714 124.484 10.029 124.489 9.97379 124.496C9.86328 124.511 9.7012 124.531 9.49491 124.558C9.08233 124.611 8.49294 124.686 7.78567 124.777C6.37113 124.958 4.48508 125.2 2.59902 125.442L2.59024 125.374ZM1.99182 121.109L2.62876 125.403L2.56049 125.413L1.92355 121.119L1.99182 121.109ZM1.03413 114.653L1.99182 121.109L1.92355 121.119L0.965866 114.663L1.03413 114.653ZM8.2591 113.727C8.2635 113.761 8.26349 113.761 8.26346 113.761C8.26343 113.761 8.26339 113.761 8.26333 113.761C8.26322 113.761 8.26306 113.761 8.26284 113.761C8.2624 113.761 8.26173 113.762 8.26086 113.762C8.2591 113.762 8.25647 113.762 8.25298 113.763C8.246 113.764 8.23558 113.765 8.22185 113.767C8.19437 113.77 8.15361 113.775 8.10044 113.782C7.99409 113.796 7.83812 113.816 7.63961 113.841C7.24259 113.892 6.67544 113.965 5.99487 114.052C4.63373 114.227 2.81895 114.46 1.00438 114.692L0.995618 114.624C2.81018 114.391 4.62495 114.159 5.98609 113.984C6.66665 113.897 7.23381 113.824 7.63082 113.773C7.82933 113.747 7.9853 113.727 8.09165 113.714C8.14482 113.707 8.18559 113.702 8.21306 113.698C8.22679 113.696 8.23721 113.695 8.24419 113.694C8.24768 113.694 8.25031 113.693 8.25206 113.693C8.25294 113.693 8.25361 113.693 8.25405 113.693C8.25427 113.693 8.25443 113.693 8.25454 113.693C8.2546 113.693 8.25464 113.693 8.25467 113.693C8.2547 113.693 8.25471 113.693 8.2591 113.727ZM27.4484 124.885C25.0595 117.159 16.7802 112.357 8.26472 113.761L8.25349 113.693C16.7996 112.284 25.1142 117.103 27.5143 124.864L27.4484 124.885ZM30.5783 150.457L27.4471 124.879L27.5156 124.87L30.6468 150.449L30.5783 150.457ZM43.9617 150.453C43.9617 152.527 43.125 154.085 41.8688 155.123C40.6134 156.161 38.9409 156.679 37.2699 156.679C35.5988 156.679 33.9264 156.161 32.671 155.123C31.4148 154.085 30.578 152.527 30.578 150.453H30.6471C30.6471 152.506 31.4746 154.045 32.715 155.07C33.9561 156.096 35.6123 156.61 37.2699 156.61C38.9275 156.61 40.5837 156.096 41.8248 155.07C43.0651 154.045 43.8927 152.506 43.8927 150.453H43.9617ZM43.6522 25.6272L43.9617 150.453L43.8927 150.453L43.5832 25.6273L43.6522 25.6272ZM96.55 25.6273C96.55 17.4285 93.2442 11.2814 88.2865 7.18341C83.328 3.08478 76.7153 1.03452 70.1011 1.03452C63.487 1.03452 56.8743 3.08478 51.9158 7.18341C46.9581 11.2814 43.6522 17.4285 43.6522 25.6273H43.5832C43.5832 17.4079 46.8982 11.2413 51.8718 7.13022C56.8446 3.01979 63.4736 0.9655 70.1011 0.9655C76.7287 0.9655 83.3577 3.01979 88.3305 7.13022C93.3041 11.2413 96.6191 17.4079 96.6191 25.6273H96.55ZM98.2532 72.3826L96.5501 25.6285L96.619 25.626L98.3222 72.3801L98.2532 72.3826ZM106.173 79.7482C101.801 79.7482 98.2532 76.4509 98.2532 72.3813H98.3222C98.3222 76.4082 101.834 79.6792 106.173 79.6792V79.7482ZM114.093 72.3813C114.093 76.451 110.544 79.7482 106.173 79.7482V79.6792C110.511 79.6792 114.024 76.4082 114.024 72.3813H114.093ZM115.795 25.6285L114.093 72.3826L114.024 72.3801L115.726 25.626L115.795 25.6285ZM168.694 25.6273C168.694 17.4285 165.388 11.2814 160.43 7.18343C155.471 3.08478 148.859 1.03452 142.244 1.03452C135.63 1.03452 129.017 3.08478 124.059 7.18343C119.101 11.2814 115.795 17.4285 115.795 25.6273H115.726C115.726 17.4079 119.041 11.2413 124.015 7.13022C128.988 3.01979 135.617 0.9655 142.244 0.9655C148.872 0.9655 155.501 3.01979 160.474 7.13022C165.448 11.2413 168.763 17.4079 168.763 25.6273H168.694ZM168.404 142.808L168.694 25.6272L168.763 25.6273L168.473 142.808L168.404 142.808ZM198.231 142.808C198.231 147.43 196.366 150.899 193.568 153.212C190.771 155.524 187.044 156.679 183.317 156.679C179.591 156.679 175.863 155.524 173.066 153.212C170.268 150.899 168.404 147.43 168.404 142.808H168.473C168.473 147.41 170.328 150.859 173.11 153.158C175.892 155.459 179.604 156.61 183.317 156.61C187.03 156.61 190.742 155.459 193.524 153.158C196.306 150.859 198.162 147.41 198.162 142.808H198.231ZM198.161 113.394L198.231 142.808L198.162 142.808L198.092 113.394L198.161 113.394ZM231.461 79.774C212.27 80.4874 197.352 95.5535 198.161 113.392L198.092 113.395C197.281 95.5136 212.234 80.4197 231.458 79.705L231.461 79.774ZM267.542 110.812C266.817 92.9706 250.653 79.0613 231.461 79.774L231.458 79.705C250.684 78.9911 266.885 92.9252 267.611 110.809L267.542 110.812ZM267.509 125L267.542 110.811L267.611 110.811L267.578 125.001L267.509 125ZM269.106 125.038L267.543 125.035L267.543 124.966L269.106 124.969L269.106 125.038ZM284.019 111.167C284.019 118.83 277.34 125.038 269.106 125.038V124.969C277.306 124.969 283.95 118.787 283.95 111.167H284.019ZM284.019 14.8364V111.167H283.95V14.8364H284.019ZM298.863 1.03452C290.664 1.03452 284.019 7.21652 284.019 14.8364H283.95C283.95 7.17377 290.63 0.9655 298.863 0.9655V1.03452ZM354.999 1.03452H298.863V0.9655H354.999V1.03452ZM354.999 50.2224C363.818 50.2224 370.43 47.147 374.837 42.5366C379.244 37.9258 381.448 31.7775 381.448 25.6284C381.448 19.4794 379.244 13.3311 374.837 8.72023C370.43 4.10983 363.818 1.03452 354.999 1.03452V0.9655C363.835 0.9655 370.466 4.04727 374.887 8.67255C379.307 13.2974 381.517 19.4633 381.517 25.6284C381.517 31.7936 379.307 37.9595 374.887 42.5843C370.466 47.2096 363.835 50.2914 354.999 50.2914V50.2224ZM295.655 50.0933L354.999 50.2224L354.999 50.2914L295.654 50.1623L295.655 50.0933ZM295.62 111.167V50.1278H295.689V111.167H295.62ZM269.106 135.821C283.751 135.821 295.62 124.78 295.62 111.167H295.689C295.689 124.823 283.785 135.89 269.106 135.89V135.821ZM267.517 135.821H269.106V135.89H267.517V135.821ZM267.481 136.636L267.483 135.855L267.552 135.856L267.55 136.636L267.481 136.636ZM312.158 136.633C311.902 143.314 309.045 148.326 304.888 151.667C300.731 155.009 295.276 156.679 289.822 156.679C284.368 156.68 278.913 155.011 274.755 151.67C270.597 148.329 267.74 143.318 267.481 136.637L267.55 136.635C267.808 143.295 270.656 148.288 274.799 151.617C278.942 154.946 284.382 156.611 289.822 156.61C295.263 156.61 300.702 154.943 304.845 151.614C308.986 148.284 311.833 143.291 312.089 136.631L312.158 136.633ZM312.097 110.841L312.158 136.632L312.089 136.632L312.028 110.841L312.097 110.841ZM381.485 110.842C381.064 100.487 376.622 92.7217 370.171 87.545C363.719 82.3678 355.256 79.7783 346.791 79.7783C338.326 79.7783 329.862 82.3678 323.411 87.545C316.959 92.7217 312.518 100.487 312.097 110.842L312.028 110.84C312.45 100.464 316.901 92.6803 323.367 87.4912C329.833 82.3027 338.313 79.7093 346.791 79.7093C355.269 79.7093 363.748 82.3027 370.214 87.4912C376.681 92.6803 381.132 100.464 381.554 110.84L381.485 110.842ZM381.409 142.838L381.485 110.841L381.554 110.841L381.478 142.838L381.409 142.838ZM396.315 156.709C388.084 156.705 381.409 150.499 381.409 142.838H381.478C381.478 150.457 388.117 156.636 396.315 156.64L396.315 156.709ZM549 156.709H396.315V156.64H549V156.709ZM548.966 167.526V156.675H549.034V167.526H548.966ZM396.333 167.492H549V167.561H396.333V167.492ZM369.808 142.838C369.808 156.455 381.682 167.497 396.333 167.492V167.561C381.649 167.566 369.739 156.498 369.739 142.838H369.808ZM369.808 135.886V142.838H369.739V135.886H369.808ZM323.808 135.851H369.774V135.921H323.808V135.851ZM289.803 167.461C308.566 167.471 323.774 153.328 323.773 135.886L323.842 135.886C323.843 153.371 308.599 167.54 289.803 167.53L289.803 167.461ZM255.866 135.856C255.846 153.297 271.041 167.453 289.803 167.461L289.803 167.53C271.008 167.522 255.777 153.34 255.797 135.855L255.866 135.856ZM209.866 135.821H255.832V135.89H209.866V135.821ZM209.831 142.808V135.855H209.9V142.808H209.831ZM209.824 124.97H255.874V125.039H209.824V124.97ZM209.858 112.881V125.004H209.789V112.881H209.858ZM232.848 90.6382C219.781 90.6382 209.341 100.743 209.858 112.879L209.789 112.882C209.27 100.702 219.747 90.5692 232.848 90.5692V90.6382ZM255.839 112.879C256.357 100.743 245.916 90.6382 232.848 90.6382V90.5692C245.951 90.5692 256.427 100.702 255.908 112.882L255.839 112.879ZM255.839 125.004V112.881H255.908V125.004H255.839ZM369.817 125.069H323.766V125H369.817V125.069ZM369.852 112.911V125.034H369.783V112.911H369.852ZM346.793 90.5999C359.893 90.5999 370.37 100.732 369.852 112.912L369.783 112.909C370.299 100.773 359.859 90.6689 346.793 90.6689V90.5999ZM323.732 112.912C323.213 100.732 333.69 90.5999 346.793 90.5999V90.6689C333.724 90.6689 323.284 100.773 323.801 112.909L323.732 112.912ZM323.732 125.034V112.911H323.801V125.034H323.732ZM355 11.8547C359.931 11.8547 363.633 13.5743 366.102 16.1567C368.571 18.7386 369.806 22.1807 369.808 25.6225C369.809 29.0644 368.577 32.5074 366.111 35.091C363.643 37.6751 359.943 39.3974 355.012 39.401L355.012 39.332C359.926 39.3284 363.608 37.6126 366.061 35.0434C368.514 32.4737 369.74 29.0483 369.739 25.6225C369.737 22.1968 368.508 18.7723 366.052 16.2044C363.597 13.6369 359.914 11.9237 355 11.9237V11.8547ZM298.864 11.8547H355V11.9237H298.864V11.8547ZM295.66 14.837C295.66 13.1872 297.098 11.8547 298.864 11.8547V11.9237C297.131 11.9237 295.729 13.23 295.729 14.837H295.66ZM295.66 39.2397V14.837H295.729V39.2397H295.66ZM355.012 39.3665C355.012 39.401 355.011 39.401 355.011 39.401C355.011 39.401 355.011 39.401 355.01 39.401C355.009 39.401 355.008 39.401 355.006 39.401C355.002 39.4009 354.997 39.4009 354.99 39.4009C354.976 39.4009 354.954 39.4008 354.926 39.4008C354.868 39.4007 354.783 39.4005 354.671 39.4002C354.447 39.3998 354.114 39.3991 353.679 39.3981C352.81 39.3963 351.536 39.3936 349.914 39.3902C346.67 39.3833 342.036 39.3735 336.475 39.3617C325.353 39.338 310.524 39.3063 295.695 39.2743L295.695 39.2052C310.524 39.2373 325.353 39.269 336.475 39.2926C342.036 39.3045 346.67 39.3143 349.914 39.3212C351.536 39.3246 352.81 39.3273 353.679 39.3291C354.114 39.33 354.447 39.3307 354.671 39.3312C354.784 39.3315 354.869 39.3316 354.926 39.3318C354.954 39.3318 354.976 39.3319 354.99 39.3319C354.997 39.3319 355.003 39.3319 355.006 39.3319C355.008 39.3319 355.009 39.3319 355.01 39.3319C355.011 39.3319 355.011 39.332 355.011 39.332C355.012 39.332 355.012 39.332 355.012 39.3665Z" fill="black"/>
<path d="M355 11.8893C374.69 11.8893 374.702 39.3525 355.012 39.3666C355.012 39.3666 325.354 39.304 295.695 39.2399V14.8371C295.695 13.2087 297.115 11.8893 298.864 11.8893H355Z" stroke="black" stroke-width="0.0690146"/>
</svg>
