<svg width="173" height="53" viewBox="0 0 173 53" fill="none" xmlns="http://www.w3.org/2000/svg">
<path d="M127.416 47.5538L126.206 45.9752C126.928 45.7582 127.338 45.2517 127.338 44.5282C127.338 43.5417 126.574 42.9497 125.315 42.9497H123.462V47.5538H123.985V46.0936H125.315C125.456 46.0936 125.584 46.0871 125.711 46.0739L126.843 47.5538H127.416ZM125.301 45.6793H123.985V43.3707H125.301C126.291 43.3707 126.814 43.7916 126.814 44.5282C126.814 45.2517 126.291 45.6793 125.301 45.6793V45.6793Z" fill="white"/>
<path d="M131.617 47.5538H132.14V43.3707H133.88V42.9497H129.877V43.3707H131.617V47.5538Z" fill="white"/>
<path d="M141.993 42.9497L139.864 46.3633L137.714 42.9497H137.282V47.5538H137.784V43.8903L139.729 46.9684H139.977L141.922 43.8705V47.5538H142.424V42.9497H141.993Z" fill="white"/>
<path d="M145.558 47.1328V45.4227H148.118V45.0084H145.558V43.3707H148.429V42.9497H145.034V47.5538H148.535V47.1328H145.558Z" fill="white"/>
<path d="M155.565 42.9497V46.6856L152.375 42.9497H151.944V47.5538H152.467V43.8179L155.65 47.5538H156.081V42.9497H155.565Z" fill="white"/>
<path d="M160.099 47.5538H160.622V43.3707H162.362V42.9497H158.359V43.3707H160.099V47.5538Z" fill="white"/>
<path d="M167.13 47.5927C168.396 47.5927 168.976 47.0139 168.976 46.3364C168.976 44.6592 165.928 45.4222 165.928 44.1593C165.928 43.6989 166.331 43.324 167.236 43.324C167.675 43.324 168.17 43.449 168.594 43.7055L168.771 43.3175C168.375 43.0609 167.795 42.9097 167.236 42.9097C165.977 42.9097 165.411 43.495 165.411 44.1725C165.411 45.876 168.46 45.0999 168.46 46.3627C168.46 46.8165 168.057 47.1783 167.13 47.1783C166.479 47.1783 165.85 46.9415 165.496 46.6192L165.291 46.9941C165.659 47.3493 166.387 47.5927 167.13 47.5927V47.5927Z" fill="white"/>
<path d="M66.162 39.6948H80.5316V35.9117C80.6933 32.1179 77.4298 28.9603 73.3467 28.9603C69.2638 28.9603 66.0003 32.1179 66.162 35.9117V39.6948Z" stroke="white" stroke-width="0.0690146"/>
<path d="M101.717 39.7036H116.087V35.9205C116.248 32.1267 112.985 28.9694 108.902 28.9694C104.819 28.9694 101.556 32.1267 101.717 35.9205V39.7036Z" stroke="white" stroke-width="0.0690146"/>
<path fill-rule="evenodd" clip-rule="evenodd" d="M66.1752 45.25C66.1752 55.5218 49.6066 55.5218 49.6066 45.25V45.242C49.6517 26.9618 49.6971 8.68143 49.6971 8.68143C49.695 6.29848 47.6088 4.37168 45.0463 4.38632C42.4838 4.40072 40.4229 6.35096 40.452 8.7339L39.92 23.344C39.8788 26.4498 37.1591 28.9482 33.8184 28.9482C30.4778 28.9482 27.7583 26.4498 27.7171 23.344L27.1849 8.7339C27.2143 6.35096 25.1533 4.40072 22.5908 4.38632C20.0283 4.37168 17.9418 6.29848 17.94 8.68143L18.0366 47.6305C18.0434 54.5666 6.9407 54.8043 6.60477 47.8756L5.68962 40.3995C5.3781 39.7386 4.61124 39.3713 3.85172 39.5187C3.85172 39.5187 2.67466 39.6695 1.49759 39.8206L1 36.466C2.13245 36.3211 3.26516 36.1756 3.26516 36.1756C5.92713 35.7366 8.51615 37.2377 9.26333 39.6541L10.2404 47.6357C10.2404 50.2117 14.3952 50.2117 14.3952 47.6357L14.2986 8.6846C14.2986 -1.56177 30.8266 -1.56177 30.8266 8.6846L31.358 23.2739C31.358 24.5372 32.4595 25.5619 33.8184 25.5619C35.1774 25.5619 36.2791 24.5372 36.2791 23.2739L36.8103 8.6846C36.8103 -1.56177 53.3385 -1.56177 53.3385 8.6846L53.248 45.25C53.248 51.0068 62.5338 51.0068 62.5338 45.25L62.512 36.0716C62.2593 30.4984 66.9198 25.7928 72.9135 25.57C78.9075 25.3474 83.9572 29.6916 84.1837 35.2655L84.1732 39.6934L84.6608 39.6944C87.2249 39.6944 89.3037 37.7612 89.3037 35.3768V5.31739C89.3037 2.93298 91.3825 0.99982 93.9463 0.99982H111.463C122.482 0.99982 122.482 16.3701 111.463 16.3701L92.9451 16.3298V35.3768C92.9451 39.6314 89.236 43.0806 84.6608 43.0806H84.165L84.1645 43.3242C84.4868 51.6499 97.7641 51.6484 98.0843 43.323L98.0651 35.2751C98.5908 22.3368 119.213 22.3368 119.739 35.2751L119.715 45.2596C119.715 47.6435 121.792 49.5759 124.356 49.5771H172V52.9634H124.361C119.784 52.9648 116.074 49.5154 116.074 45.2596V43.0902H101.73C101.73 48.5396 96.9791 52.9568 91.1193 52.9539C85.2594 52.9512 80.5123 48.5299 80.5186 43.0806H66.1752V45.25ZM80.5318 39.6947H66.1621V35.9117C66.0005 32.1178 69.264 28.9603 73.3468 28.9603C77.4299 28.9603 80.6934 32.1178 80.5318 35.9117V39.6947ZM101.717 39.704H116.087V35.9209C116.249 32.1271 112.985 28.9698 108.903 28.9698C104.819 28.9698 101.556 32.1271 101.717 35.9209V39.704ZM111.467 12.9718C117.611 12.9674 117.608 4.39771 111.463 4.39771H93.9466C93.4007 4.39771 92.9577 4.80943 92.9577 5.31755V12.9323C102.213 12.9523 111.467 12.9718 111.467 12.9718Z" fill="white"/>
<path d="M49.6066 45.242H49.5721L49.5721 45.2419L49.6066 45.242ZM49.6971 8.68143L49.7316 8.6814L49.7316 8.68152L49.6971 8.68143ZM45.0463 4.38632L45.0465 4.42083L45.0465 4.42083L45.0463 4.38632ZM40.452 8.7339L40.4865 8.73348L40.4865 8.73516L40.452 8.7339ZM39.92 23.344L39.8855 23.3435L39.8855 23.3427L39.92 23.344ZM27.7171 23.344L27.7516 23.3427L27.7516 23.3435L27.7171 23.344ZM27.1849 8.7339L27.1504 8.73516L27.1504 8.73348L27.1849 8.7339ZM22.5908 4.38632L22.5906 4.42083L22.5906 4.42083L22.5908 4.38632ZM17.94 8.68143L17.9055 8.68152L17.9055 8.6814L17.94 8.68143ZM18.0366 47.6305L18.0711 47.6305L18.0711 47.6305L18.0366 47.6305ZM6.60477 47.8756L6.63911 47.8714L6.63923 47.8739L6.60477 47.8756ZM5.68962 40.3995L5.72249 40.384L5.72388 40.3953L5.68962 40.3995ZM3.85172 39.5187L3.85831 39.5526L3.85611 39.5529L3.85172 39.5187ZM1.49759 39.8206L1.50199 39.8548L1.46843 39.8591L1.46346 39.8256L1.49759 39.8206ZM1 36.466L0.965866 36.4711L0.960701 36.4363L0.995618 36.4318L1 36.466ZM3.26516 36.1756L3.27078 36.2097L3.26955 36.2098L3.26516 36.1756ZM9.26333 39.6541L9.29683 39.6438L9.29758 39.6499L9.26333 39.6541ZM10.2404 47.6357L10.2749 47.6314V47.6357H10.2404ZM14.3952 47.6357L14.4297 47.6356V47.6357H14.3952ZM14.2986 8.6846L14.2641 8.68469V8.6846H14.2986ZM30.8266 8.6846L30.7921 8.68586V8.6846H30.8266ZM31.358 23.2739L31.3925 23.2727V23.2739H31.358ZM36.2791 23.2739H36.2446L36.2446 23.2727L36.2791 23.2739ZM36.8103 8.6846H36.8448L36.8448 8.68586L36.8103 8.6846ZM53.3385 8.6846H53.3731L53.3731 8.68469L53.3385 8.6846ZM53.248 45.25H53.2135L53.2135 45.25L53.248 45.25ZM62.5338 45.25L62.5683 45.25V45.25H62.5338ZM62.512 36.0716L62.5465 36.0701L62.5465 36.0716L62.512 36.0716ZM72.9135 25.57L72.9122 25.5355L72.9122 25.5355L72.9135 25.57ZM84.1837 35.2655L84.2182 35.2641L84.2182 35.2656L84.1837 35.2655ZM84.1732 39.6934L84.1731 39.7279L84.1386 39.7279L84.1386 39.6933L84.1732 39.6934ZM84.6608 39.6944V39.7289L84.6607 39.7289L84.6608 39.6944ZM111.463 16.3701V16.4046L111.463 16.4046L111.463 16.3701ZM92.9451 16.3298H92.9106V16.2953L92.9452 16.2953L92.9451 16.3298ZM84.165 43.0806L84.1305 43.0806L84.1306 43.0461H84.165V43.0806ZM84.1645 43.3242L84.13 43.3255L84.13 43.3241L84.1645 43.3242ZM98.0843 43.323L98.1188 43.3229L98.1188 43.3243L98.0843 43.323ZM98.0651 35.2751L98.0306 35.2751L98.0307 35.2737L98.0651 35.2751ZM119.739 35.2751L119.773 35.2737L119.773 35.2751L119.739 35.2751ZM119.715 45.2596H119.68L119.68 45.2595L119.715 45.2596ZM124.356 49.5771L124.356 49.6116L124.356 49.6116L124.356 49.5771ZM172 49.5771V49.5426H172.035V49.5771H172ZM172 52.9634H172.035V52.9979H172V52.9634ZM124.361 52.9634L124.361 52.9289H124.361V52.9634ZM116.074 43.0902V43.0557H116.108V43.0902H116.074ZM101.73 43.0902L101.696 43.0902L101.696 43.0557H101.73V43.0902ZM91.1193 52.9539L91.1193 52.9194L91.1193 52.9194L91.1193 52.9539ZM80.5186 43.0806V43.0461H80.5532L80.5531 43.0807L80.5186 43.0806ZM66.1752 43.0806H66.1407V43.0461H66.1752V43.0806ZM66.1621 39.6947V39.7292H66.1276V39.6947H66.1621ZM80.5318 39.6947H80.5663V39.7292H80.5318V39.6947ZM66.1621 35.9117L66.1967 35.9102V35.9117H66.1621ZM80.5318 35.9117H80.4972L80.4973 35.9102L80.5318 35.9117ZM116.087 39.704H116.122V39.7385H116.087V39.704ZM101.717 39.704V39.7385H101.683V39.704H101.717ZM116.087 35.9209H116.053L116.053 35.9195L116.087 35.9209ZM101.717 35.9209L101.752 35.9195V35.9209H101.717ZM111.467 12.9718L111.467 13.0063L111.467 13.0063L111.467 12.9718ZM92.9577 12.9323L92.9576 12.9668L92.9232 12.9667V12.9323H92.9577ZM49.6411 45.25C49.6411 47.8077 50.672 49.7239 52.2174 51.0013C53.7636 52.2794 55.8265 52.9194 57.8909 52.9194C59.9553 52.9194 62.0182 52.2794 63.5644 51.0013C65.1098 49.7239 66.1407 47.8077 66.1407 45.25H66.2097C66.2097 47.8283 65.1696 49.764 63.6084 51.0545C62.0479 52.3444 59.9687 52.9884 57.8909 52.9884C55.8131 52.9884 53.7339 52.3444 52.1734 51.0545C50.6122 49.764 49.5721 47.8283 49.5721 45.25H49.6411ZM49.6411 45.242V45.25H49.5721V45.242H49.6411ZM49.6971 8.68143C49.7316 8.68152 49.7316 8.68159 49.7316 8.68173C49.7316 8.68186 49.7316 8.68207 49.7316 8.68235C49.7316 8.68291 49.7316 8.68374 49.7316 8.68485C49.7316 8.68708 49.7316 8.69041 49.7316 8.69484C49.7316 8.70369 49.7315 8.71694 49.7315 8.73451C49.7314 8.76966 49.7313 8.8221 49.7311 8.89128C49.7308 9.02963 49.7303 9.23493 49.7296 9.50271C49.7283 10.0383 49.7263 10.8237 49.7238 11.8235C49.7189 13.8229 49.7118 16.6792 49.7033 20.1067C49.6863 26.9619 49.6637 36.102 49.6411 45.2421L49.5721 45.2419C49.5946 36.1018 49.6173 26.9617 49.6343 20.1066C49.6428 16.679 49.6499 13.8227 49.6548 11.8233C49.6573 10.8236 49.6592 10.0381 49.6606 9.50253C49.6612 9.23475 49.6618 9.02946 49.6621 8.89111C49.6623 8.82193 49.6624 8.76949 49.6625 8.73434C49.6625 8.71677 49.6626 8.70352 49.6626 8.69466C49.6626 8.69024 49.6626 8.68691 49.6626 8.68468C49.6626 8.68357 49.6626 8.68274 49.6626 8.68218C49.6626 8.6819 49.6626 8.68169 49.6626 8.68155C49.6626 8.68141 49.6626 8.68134 49.6971 8.68143ZM45.0461 4.35181C47.6254 4.33707 49.7295 6.277 49.7316 8.6814L49.6626 8.68146C49.6605 6.31997 47.5923 4.40628 45.0465 4.42083L45.0461 4.35181ZM40.4175 8.73432C40.3881 6.32989 42.4669 4.36631 45.0461 4.35181L45.0465 4.42083C42.5007 4.43513 40.4576 6.37202 40.4865 8.73348L40.4175 8.73432ZM39.8855 23.3427L40.4175 8.73265L40.4865 8.73516L39.9545 23.3452L39.8855 23.3427ZM33.8184 28.9137C37.1426 28.9137 39.8446 26.4282 39.8855 23.3435L39.9545 23.3444C39.913 26.4714 37.1756 28.9827 33.8184 28.9827V28.9137ZM27.7516 23.3435C27.7926 26.4282 30.4943 28.9137 33.8184 28.9137V28.9827C30.4613 28.9827 27.7241 26.4714 27.6826 23.3444L27.7516 23.3435ZM27.2194 8.73265L27.7516 23.3427L27.6826 23.3452L27.1504 8.73516L27.2194 8.73265ZM22.591 4.35181C25.1702 4.36631 27.2491 6.32989 27.2194 8.73433L27.1504 8.73348C27.1795 6.37202 25.1364 4.43513 22.5906 4.42083L22.591 4.35181ZM17.9055 8.6814C17.9074 6.277 20.0118 4.33707 22.591 4.35181L22.5906 4.42083C20.0448 4.40628 17.9763 6.31997 17.9745 8.68146L17.9055 8.6814ZM18.0021 47.6306L17.9055 8.68152L17.9745 8.68134L18.0711 47.6305L18.0021 47.6306ZM6.63923 47.8739C6.72273 49.5959 7.47472 50.8709 8.55482 51.7084C9.63567 52.5466 11.0467 52.9479 12.4485 52.9178C13.8502 52.8878 15.2399 52.4265 16.2781 51.543C17.3156 50.6602 18.0038 49.3544 18.0021 47.6306L18.0711 47.6305C18.0728 49.3747 17.3757 50.6996 16.3229 51.5956C15.2707 52.4909 13.865 52.9565 12.45 52.9868C11.0349 53.0171 9.60769 52.6122 8.51252 51.763C7.4166 50.9132 6.65477 49.6196 6.5703 47.8772L6.63923 47.8739ZM5.72388 40.3953L6.63902 47.8714L6.57052 47.8798L5.65537 40.4037L5.72388 40.3953ZM3.84515 39.4848C4.61885 39.3346 5.40203 39.7084 5.72084 40.3847L5.65841 40.4142C5.35417 39.7687 4.60362 39.4079 3.8583 39.5525L3.84515 39.4848ZM1.4932 39.7863C2.08174 39.7108 2.67027 39.6353 3.11167 39.5787C3.33237 39.5504 3.51629 39.5269 3.64503 39.5104C3.7094 39.5021 3.75998 39.4956 3.79446 39.4912C3.8117 39.489 3.82492 39.4873 3.83383 39.4862C3.83828 39.4856 3.84166 39.4852 3.84392 39.4849C3.84506 39.4847 3.84591 39.4846 3.84648 39.4846C3.84676 39.4845 3.84698 39.4845 3.84712 39.4845C3.84719 39.4845 3.84725 39.4845 3.84728 39.4844C3.8473 39.4844 3.84731 39.4844 3.84732 39.4844C3.84733 39.4844 3.84734 39.4844 3.85172 39.5187C3.85611 39.5529 3.8561 39.5529 3.85609 39.5529C3.85609 39.5529 3.85607 39.5529 3.85605 39.5529C3.85602 39.5529 3.85596 39.5529 3.85589 39.5529C3.85575 39.5529 3.85554 39.553 3.85525 39.553C3.85468 39.5531 3.85383 39.5532 3.8527 39.5533C3.85043 39.5536 3.84706 39.5541 3.8426 39.5546C3.83369 39.5558 3.82047 39.5575 3.80323 39.5597C3.76875 39.5641 3.71817 39.5706 3.6538 39.5788C3.52506 39.5953 3.34114 39.6189 3.12045 39.6472C2.67905 39.7038 2.09052 39.7793 1.50199 39.8548L1.4932 39.7863ZM1.03413 36.461L1.53173 39.8155L1.46346 39.8256L0.965866 36.4711L1.03413 36.461ZM3.26516 36.1756C3.26955 36.2098 3.26955 36.2098 3.26954 36.2098C3.26953 36.2098 3.26952 36.2098 3.2695 36.2098C3.26947 36.2099 3.26942 36.2099 3.26935 36.2099C3.26921 36.2099 3.269 36.2099 3.26873 36.2099C3.26818 36.21 3.26736 36.2101 3.26627 36.2103C3.26409 36.2105 3.26084 36.211 3.25656 36.2115C3.24798 36.2126 3.23526 36.2142 3.21867 36.2164C3.18549 36.2206 3.13681 36.2269 3.07487 36.2348C2.95098 36.2507 2.77401 36.2734 2.56164 36.3007C2.1369 36.3552 1.57061 36.4278 1.00438 36.5003L0.995618 36.4318C1.56184 36.3593 2.12812 36.2867 2.55286 36.2322C2.76522 36.205 2.9422 36.1823 3.06608 36.1664C3.12803 36.1584 3.1767 36.1522 3.20988 36.1479C3.22647 36.1458 3.23919 36.1442 3.24777 36.1431C3.25205 36.1425 3.2553 36.1421 3.25748 36.1418C3.25857 36.1417 3.25939 36.1416 3.25994 36.1415C3.26021 36.1415 3.26042 36.1414 3.26056 36.1414C3.26063 36.1414 3.26068 36.1414 3.26071 36.1414C3.26073 36.1414 3.26074 36.1414 3.26075 36.1414C3.26076 36.1414 3.26076 36.1414 3.26516 36.1756ZM9.23037 39.6643C8.48878 37.266 5.91746 35.7731 3.27077 36.2097L3.25954 36.1416C5.93681 35.7 8.54353 37.2094 9.2963 39.6439L9.23037 39.6643ZM10.2062 47.6399L9.22908 39.6583L9.29758 39.6499L10.2747 47.6315L10.2062 47.6399ZM14.4297 47.6357C14.4297 48.2899 14.1654 48.7827 13.768 49.1113C13.3713 49.4392 12.8438 49.6022 12.3178 49.6022C11.7917 49.6022 11.2642 49.4392 10.8676 49.1113C10.4702 48.7827 10.2059 48.2899 10.2059 47.6357H10.2749C10.2749 48.2694 10.53 48.7426 10.9116 49.0581C11.294 49.3742 11.8052 49.5332 12.3178 49.5332C12.8304 49.5332 13.3416 49.3742 13.724 49.0581C14.1056 48.7426 14.3607 48.2694 14.3607 47.6357H14.4297ZM14.3331 8.68452L14.4297 47.6356L14.3607 47.6358L14.2641 8.68469L14.3331 8.68452ZM30.7921 8.6846C30.7921 6.13329 29.7636 4.22185 28.2221 2.94761C26.6797 1.67271 24.6219 1.03433 22.5626 1.03433C20.5033 1.03433 18.4454 1.67271 16.9031 2.94761C15.3615 4.22185 14.3331 6.13329 14.3331 8.6846H14.2641C14.2641 6.11273 15.3017 4.18178 16.8591 2.89442C18.4157 1.60773 20.4899 0.965315 22.5626 0.965315C24.6353 0.965315 26.7094 1.60773 28.2661 2.89442C29.8235 4.18178 30.8611 6.11273 30.8611 8.6846H30.7921ZM31.3235 23.2752L30.7921 8.68586L30.8611 8.68335L31.3925 23.2727L31.3235 23.2752ZM33.8184 25.5964C32.4428 25.5964 31.3235 24.5585 31.3235 23.2739H31.3925C31.3925 24.5158 32.4762 25.5274 33.8184 25.5274V25.5964ZM36.3136 23.2739C36.3136 24.5585 35.194 25.5964 33.8184 25.5964V25.5274C35.1607 25.5274 36.2446 24.5158 36.2446 23.2739H36.3136ZM36.8448 8.68586L36.3136 23.2752L36.2446 23.2727L36.7758 8.68335L36.8448 8.68586ZM53.304 8.6846C53.304 6.13329 52.2756 4.22185 50.734 2.94762C49.1916 1.67271 47.1337 1.03433 45.0744 1.03433C43.0151 1.03433 40.9572 1.67271 39.4148 2.94762C37.8732 4.22185 36.8448 6.13329 36.8448 8.6846H36.7758C36.7758 6.11273 37.8134 4.18178 39.3709 2.89442C40.9275 1.60773 43.0017 0.965315 45.0744 0.965315C47.1472 0.965315 49.2213 1.60773 50.778 2.89442C52.3355 4.18178 53.3731 6.11273 53.3731 8.6846H53.304ZM53.2135 45.25L53.304 8.68452L53.3731 8.68469L53.2825 45.2501L53.2135 45.25ZM62.5683 45.25C62.5683 46.6995 61.9834 47.7887 61.1049 48.5148C60.2272 49.2403 59.0583 49.6021 57.8909 49.6021C56.7235 49.6021 55.5546 49.2403 54.6769 48.5148C53.7984 47.7887 53.2135 46.6995 53.2135 45.25H53.2825C53.2825 46.679 53.8583 47.7486 54.7209 48.4616C55.5843 49.1753 56.7369 49.5331 57.8909 49.5331C59.0449 49.5331 60.1975 49.1753 61.0609 48.4616C61.9235 47.7486 62.4993 46.679 62.4993 45.25H62.5683ZM62.5465 36.0716L62.5683 45.25L62.4993 45.2501L62.4775 36.0717L62.5465 36.0716ZM72.9148 25.6045C66.9378 25.8267 62.2947 30.5183 62.5465 36.0701L62.4776 36.0732C62.2239 30.4785 66.9018 25.7589 72.9122 25.5355L72.9148 25.6045ZM84.1492 35.2669C83.9236 29.7143 78.8921 25.3825 72.9148 25.6045L72.9122 25.5355C78.9228 25.3123 83.9908 29.6689 84.2181 35.2641L84.1492 35.2669ZM84.1386 39.6933L84.1491 35.2655L84.2182 35.2656L84.2077 39.6935L84.1386 39.6933ZM84.6607 39.7289L84.1731 39.7279L84.1732 39.6589L84.6609 39.6599L84.6607 39.7289ZM89.3382 35.3768C89.3382 37.7826 87.2415 39.7289 84.6608 39.7289V39.6599C87.2082 39.6599 89.2692 37.7399 89.2692 35.3768H89.3382ZM89.3382 5.31739V35.3768H89.2692V5.31739H89.3382ZM93.9463 1.03433C91.3992 1.03433 89.3382 2.95435 89.3382 5.31739H89.2692C89.2692 2.9116 91.3659 0.965313 93.9463 0.965313V1.03433ZM111.463 1.03433H93.9463V0.965313H111.463V1.03433ZM111.463 16.3356C114.209 16.3356 116.266 15.3782 117.636 13.9447C119.007 12.5107 119.693 10.5982 119.693 8.68497C119.693 6.77174 119.007 4.85925 117.636 3.42527C116.266 1.99174 114.209 1.03433 111.463 1.03433V0.965313C114.226 0.965313 116.302 1.92919 117.686 3.37759C119.07 4.82554 119.762 6.75562 119.762 8.68497C119.762 10.6143 119.07 12.5444 117.686 13.9924C116.302 15.4408 114.226 16.4046 111.463 16.4046V16.3356ZM92.9452 16.2953L111.463 16.3356L111.463 16.4046L92.945 16.3644L92.9452 16.2953ZM92.9106 35.3768V16.3298H92.9796V35.3768H92.9106ZM84.6608 43.0461C89.2193 43.0461 92.9106 39.61 92.9106 35.3768H92.9796C92.9796 39.6528 89.2526 43.1151 84.6608 43.1151V43.0461ZM84.165 43.0461H84.6608V43.1151H84.165V43.0461ZM84.13 43.3241L84.1305 43.0806L84.1995 43.0807L84.199 43.3243L84.13 43.3241ZM98.1188 43.3243C98.0383 45.4157 97.1437 46.9861 95.8412 48.0332C94.5394 49.0796 92.8317 49.6021 91.1252 49.6023C89.4187 49.6024 87.7109 49.0803 86.4088 48.0341C85.106 46.9873 84.211 45.417 84.13 43.3255L84.199 43.3229C84.2792 45.3942 85.1647 46.9459 86.452 47.9803C87.7401 49.0152 89.432 49.5334 91.1252 49.5333C92.8183 49.5331 94.5101 49.0146 95.798 47.9794C97.085 46.9448 97.9702 45.3929 98.0498 43.3217L98.1188 43.3243ZM98.0996 35.275L98.1188 43.3229L98.0498 43.3231L98.0306 35.2751L98.0996 35.275ZM119.704 35.2765C119.573 32.0519 118.19 29.6353 116.183 28.0242C114.174 26.4125 111.539 25.6058 108.902 25.6058C106.265 25.6058 103.63 26.4125 101.621 28.0242C99.6133 29.6353 98.2306 32.0519 98.0996 35.2765L98.0307 35.2737C98.1625 32.029 99.5547 29.5938 101.578 27.9703C103.6 26.3474 106.252 25.5368 108.902 25.5368C111.552 25.5368 114.203 26.3474 116.226 27.9703C118.249 29.5938 119.641 32.029 119.773 35.2737L119.704 35.2765ZM119.68 45.2595L119.704 35.275L119.773 35.2751L119.749 45.2596L119.68 45.2595ZM124.356 49.6116C121.776 49.6104 119.68 47.6649 119.68 45.2596H119.749C119.749 47.6221 121.809 49.5414 124.356 49.5426L124.356 49.6116ZM172 49.6116H124.356V49.5426H172V49.6116ZM171.965 52.9634V49.5771H172.035V52.9634H171.965ZM124.361 52.9289H172V52.9979H124.361V52.9289ZM116.108 45.2596C116.108 49.494 119.801 52.9303 124.361 52.9289L124.361 52.9979C119.768 52.9994 116.039 49.5368 116.039 45.2596H116.108ZM116.108 43.0902V45.2596H116.039V43.0902H116.108ZM101.73 43.0557H116.074V43.1247H101.73V43.0557ZM91.1193 52.9194C96.9625 52.9223 101.696 48.5183 101.696 43.0902L101.765 43.0902C101.765 48.561 96.9958 52.9913 91.1193 52.9884L91.1193 52.9194ZM80.5531 43.0807C80.5469 48.5085 85.2761 52.9167 91.1193 52.9194L91.1193 52.9884C85.2427 52.9857 80.4778 48.5512 80.4841 43.0806L80.5531 43.0807ZM66.1752 43.0461H80.5186V43.1151H66.1752V43.0461ZM66.1407 45.25V43.0806H66.2097V45.25H66.1407ZM66.1621 39.6602H80.5318V39.7292H66.1621V39.6602ZM66.1967 35.9117V39.6947H66.1276V35.9117H66.1967ZM73.3468 28.9948C69.2811 28.9948 66.0359 32.1384 66.1966 35.9102L66.1277 35.9131C65.9651 32.0972 69.2469 28.9257 73.3468 28.9257V28.9948ZM80.4973 35.9102C80.658 32.1384 77.4129 28.9948 73.3468 28.9948V28.9257C77.447 28.9257 80.7289 32.0972 80.5663 35.9131L80.4973 35.9102ZM80.4973 39.6947V35.9117H80.5663V39.6947H80.4973ZM116.087 39.7385H101.717V39.6695H116.087V39.7385ZM116.122 35.9209V39.704H116.053V35.9209H116.122ZM108.903 28.9353C113.002 28.9353 116.284 32.1065 116.122 35.9224L116.053 35.9195C116.213 32.1477 112.968 29.0043 108.903 29.0043V28.9353ZM101.683 35.9224C101.52 32.1065 104.802 28.9353 108.903 28.9353V29.0043C104.836 29.0043 101.591 32.1477 101.752 35.9195L101.683 35.9224ZM101.683 39.704V35.9209H101.752V39.704H101.683ZM111.463 4.3632C113.008 4.3632 114.17 4.90204 114.945 5.71295C115.72 6.52342 116.107 7.60356 116.108 8.68311C116.108 9.76266 115.722 10.8431 114.948 11.6541C114.173 12.4656 113.012 13.0052 111.467 13.0063L111.467 12.9373C112.995 12.9362 114.137 12.403 114.898 11.6064C115.659 10.8094 116.039 9.74657 116.039 8.68314C116.038 7.61971 115.657 6.55714 114.895 5.76065C114.134 4.9646 112.991 4.43222 111.463 4.43222V4.3632ZM93.9466 4.3632H111.463V4.43222H93.9466V4.3632ZM92.9232 5.31755C92.9232 4.78806 93.384 4.3632 93.9466 4.3632V4.43222C93.4173 4.43222 92.9922 4.83081 92.9922 5.31755H92.9232ZM92.9232 12.9323V5.31755H92.9922V12.9323H92.9232ZM111.467 12.9718C111.467 13.0063 111.467 13.0063 111.467 13.0063C111.467 13.0063 111.467 13.0063 111.467 13.0063C111.466 13.0063 111.466 13.0063 111.465 13.0063C111.464 13.0063 111.463 13.0063 111.46 13.0063C111.456 13.0063 111.449 13.0063 111.44 13.0063C111.422 13.0062 111.396 13.0062 111.361 13.0061C111.291 13.006 111.187 13.0057 111.051 13.0055C110.78 13.0049 110.383 13.004 109.876 13.003C108.864 13.0008 107.418 12.9978 105.683 12.9941C102.212 12.9867 97.585 12.9768 92.9576 12.9668L92.9577 12.8978C97.5852 12.9078 102.213 12.9177 105.683 12.9251C107.418 12.9287 108.864 12.9318 109.877 12.934C110.383 12.935 110.78 12.9359 111.051 12.9364C111.187 12.9367 111.291 12.9369 111.361 12.9371C111.396 12.9372 111.423 12.9372 111.44 12.9373C111.449 12.9373 111.456 12.9373 111.46 12.9373C111.463 12.9373 111.464 12.9373 111.465 12.9373C111.466 12.9373 111.466 12.9373 111.467 12.9373C111.467 12.9373 111.467 12.9373 111.467 12.9373C111.467 12.9373 111.467 12.9373 111.467 12.9718Z" fill="white"/>
<path d="M111.463 4.39756C117.607 4.39756 117.611 12.9673 111.467 12.9717C111.467 12.9717 102.212 12.9522 92.9575 12.9321V5.3174C92.9575 4.80928 93.4005 4.39756 93.9464 4.39756H111.463Z" stroke="white" stroke-width="0.0690146"/>
</svg>
