<svg width="21" height="21" viewBox="0 0 21 21" fill="none" xmlns="http://www.w3.org/2000/svg">
<path d="M9.06116 11.6511C8.94343 11.6546 8.83168 11.7038 8.74957 11.7883L4.09618 16.4417L2.49402 14.8396C2.41318 14.7587 2.30315 14.714 2.18887 14.7157C1.9971 14.7185 1.83124 14.85 1.78475 15.036L0.502969 20.1629C0.425662 20.4726 0.706071 20.753 1.01575 20.6757L6.14269 19.3939C6.46153 19.314 6.57146 18.9171 6.33918 18.6846L4.73702 17.0825L9.39033 12.429C9.68678 12.141 9.47434 11.6389 9.06116 11.6511ZM2.42405 15.9659L5.21283 18.7546L1.49455 19.6841L2.42405 15.9659Z" fill="black"/>
<path d="M11.9188 10.0115C12.0365 10.008 12.1483 9.95875 12.2304 9.87429L16.8838 5.22089L18.486 6.82305C18.5668 6.90389 18.6768 6.94857 18.7911 6.94694C18.9829 6.94413 19.1487 6.81262 19.1952 6.62656L20.477 1.49971C20.5543 1.19003 20.2739 0.90962 19.9642 0.986928L14.8373 2.26871C14.5185 2.34855 14.4085 2.74551 14.6408 2.97798L16.243 4.58013L11.5897 9.23362C11.2932 9.52164 11.5056 10.0237 11.9188 10.0115ZM18.5559 5.6967L15.7672 2.90801L19.4854 1.97851L18.5559 5.6967Z" fill="black"/>
</svg>
