<svg width="428" height="225" viewBox="0 0 428 225" fill="none" xmlns="http://www.w3.org/2000/svg">
<g id="telephone-graphic">
<path id="telephone-receiver" d="M427 98.7232C390.836 85.499 321.404 108.039 336.053 197.362C342.572 211.544 347.479 212.411 360.656 198.526C372.497 182.7 371.598 170.822 362.405 149.615C359.367 142.112 358.056 137.362 356.225 128.187C353.999 117.423 352.23 111.49 347.13 101.285C337.598 80.273 332.982 69.2675 341.767 67.7458C350.091 65.6949 352.498 73.5051 349.113 96.627C347.524 101.466 347.784 104.496 349.113 110.136C367.519 167.507 334.341 221.986 285.333 197.362C236.326 172.737 236.778 167.803 222.02 166.384C205.221 168.084 197.004 172.851 182.843 182.921C153.238 203.097 106.83 216.535 92.8295 218.557C78.8294 220.578 74.8127 225.259 61.4646 223.681C37.6205 214.02 29.4277 205.299 14.0091 184.435C5.3862 174.162 -4.38143 127.547 6.43025 117.473L81.4029 17.4367C91.2094 1.52699 100.121 -1.94368 117.782 3.22875C133.282 10.0317 135.475 16.0249 134.105 27.9178C132.883 38.3749 129.029 43.4258 117.782 51.3255C110.201 54.8569 105.887 56.3795 97.3768 53.1888C91.5607 50.3281 89.1823 48.248 86.1834 43.8723C83.5881 41.8498 82.1135 40.8398 78.7211 43.8723C63.6384 70.8562 28.5172 110.818 38.3782 112.581C48.2391 114.345 54.5853 127.721 53.1861 140.997C51.787 154.273 46.8041 160.83 38.3782 164.987C38.3782 164.987 26 171 16 164.5" stroke="black" stroke-width="2"/>
<g id="Group">
<path id="telephone-box" d="M279.831 65.2635C271.609 55.6839 259.084 50.0449 236 50.3524V41.861C236 40.7723 225.63 40.6602 225.63 41.8578V50.3491C225.63 51.002 202.803 51.1116 202.803 50.3491V41.8578C202.803 40.7695 192 40.7694 192 41.8578V50.3491C192 54.595 163.316 44.4701 149.901 65.2635C136.486 86.0568 138.001 122.09 138.001 122.09C199.958 132.685 231.7 132.588 290 122.09C288.772 100.253 288.053 74.8431 279.831 65.2635Z" stroke="black" stroke-width="2"/>
<path id="telephone-numbers" d="M235 78C235 81.0817 232.83 84.0614 228.91 86.3265C225.016 88.5764 219.57 90 213.5 90C207.431 90 201.985 88.5764 198.091 86.3265C194.171 84.0614 192 81.0817 192 78C192 74.9183 194.171 71.9386 198.091 69.6735C201.985 67.4236 207.431 66 213.5 66C219.57 66 225.016 67.4236 228.91 69.6735C232.83 71.9386 235 74.9183 235 78Z" stroke="black" stroke-width="2"/>
</g>
</g>
</svg>
